<svg version="1.1" viewBox="0 0 640 400" xmlns="http://www.w3.org/2000/svg" xmlns:xlink="http://www.w3.org/1999/xlink" xmlns:svgjs="http://svgjs.dev/svgjs" matcher="0.5454647552657557"><g viewBox="0 0 640 400" matcher="0.5454647552657557"><g matcher="0.5454647552657557"><g matcher="0.5454647552657557"><g matcher="0.5454647552657557"><svg viewBox="0 0 640 400" data-background-color="#2f5651" preserveAspectRatio="xMidYMid meet" height="400" width="640" xmlns="http://www.w3.org/2000/svg" xmlns:xlink="http://www.w3.org/1999/xlink"><rect width="640" height="400" x="0" y="0" opacity="1" fill="#2f5651" data-fill-palette-color="background" id="background"/><g id="tight-bounds" transform="matrix(1,0,0,1,180,60)"><svg viewBox="0 0 280 280" height="280" width="280"><g><svg viewBox="0 0 280 280" height="280" width="280"><g><svg viewBox="0 0 280 280" height="280" width="280"><g id="textblocktransform"><svg viewBox="0 0 280 280" height="280" width="280" id="textblock"><g><svg viewBox="0 0 280 280" height="280" width="280"><g transform="matrix(1,0,0,1,57.50420886156945,57.50420886156945)"><svg viewBox="0 0 164.9915822768611 164.9915822768611" height="164.9915822768611" width="164.9915822768611"><g id="icon-0"><circle r="82.49579113843055" cx="82.49579113843055" cy="82.49579113843055" fill="#cde895" data-fill-palette-color="accent"/><svg xmlns="http://www.w3.org/2000/svg" xmlns:xlink="http://www.w3.org/1999/xlink" version="1.1" x="24.748737341529164" y="24.74873734152917" viewBox="4.494966506958008 10.44797420501709 89.82696533203125 81.88848114013672" enable-background="new 0 0 100 100" xml:space="preserve" height="115.49410759380275" width="115.49410759380275" class="icon-o-0" data-fill-palette-color="quaternary" id="o-0"><g fill="#2f5651" data-fill-palette-color="quaternary"><path d="M92 31.4L50.7 41C50.8 41.1 50.9 41.3 50.9 41.4L51.9 45.9C52.1 46.9 51.4 47.9 50.3 48.1 49.2 48.4 48.1 47.8 47.9 46.8L46.9 42.3V41.8L29.8 45.8H29.7C29.6 45.8 29.5 45.8 29.4 45.9 26.2 46.7 23.2 48.1 20.7 49.9L7.8 52.9C5.8 53.4 4.4 55.2 4.5 57.3L4.7 60.6C4.8 62.9 6.7 64.7 9 64.7 9.3 64.7 9.7 64.7 10 64.6L11.8 64.2C11.2 67.4 11.1 70.8 11.9 74.2 14.8 86.8 27.5 94.7 40.1 91.7 52.7 88.8 60.6 76.1 57.6 63.5 56.9 60.7 55.8 58.1 54.3 55.9L92.4 44C93.2 43.8 93.7 43.1 93.7 42.3L94.3 33.4C94.5 32.2 93.3 31.1 92 31.4M12.7 60.4L9 61.2C8.6 61.3 8.2 61 8.1 60.6L8 57.3C8 57 8.2 56.7 8.5 56.6L15.8 54.9C14.5 56.6 13.5 58.4 12.7 60.4" fill="#2f5651" data-fill-palette-color="quaternary"/><path d="M40 37.3C40.2 37.5 40.5 37.6 40.7 37.6 41.1 37.6 41.4 37.4 41.6 37.2 42 36.7 41.9 35.9 41.4 35.5L25.8 22.8C25.3 22.4 24.5 22.5 24.1 23S23.8 24.3 24.3 24.7z" fill="#2f5651" data-fill-palette-color="quaternary"/><path d="M51.3 33C51.4 33 51.5 33.1 51.6 33.1 52.1 33.1 52.6 32.8 52.7 32.2L58.5 12.8C58.7 12.2 58.3 11.5 57.7 11.3S56.4 11.5 56.2 12.1L50.4 31.5C50.3 32.1 50.6 32.8 51.3 33" fill="#2f5651" data-fill-palette-color="quaternary"/><path d="M43.9 31.4C44.1 31.9 44.5 32.2 45 32.2 45.1 32.2 45.2 32.2 45.4 32.1 46 31.9 46.4 31.2 46.2 30.6L40.2 11.3C40 10.7 39.3 10.3 38.7 10.5S37.7 11.4 37.9 12z" fill="#2f5651" data-fill-palette-color="quaternary"/></g></svg></g></svg></g><g id="text-0"><path d="M26.374 109.548l-0.837 2.462-17.814-13.947 1.054-3.097 22.623-0.192-0.867 2.549-6.654 0.001-2.778 8.166zM10.468 97.409l8.684 6.774 2.376-6.983-11.011 0.064z" fill="#bfd7b7" data-fill-palette-color="primary"/><path d="M37.161 84.612v0c-0.841 1.586-1.927 2.754-3.26 3.505-1.333 0.75-2.873 1.045-4.62 0.885-1.757-0.157-3.688-0.793-5.795-1.909v0c-2.107-1.116-3.736-2.367-4.888-3.752-1.149-1.376-1.805-2.835-1.969-4.378-0.163-1.543 0.175-3.108 1.016-4.694v0c0.831-1.568 1.891-2.7 3.18-3.396 1.298-0.699 2.763-0.997 4.393-0.892v0l0.134 2.417c-1.173-0.131-2.257 0.034-3.252 0.495-0.996 0.461-1.804 1.278-2.426 2.452v0c-0.86 1.622-0.941 3.2-0.244 4.734 0.697 1.534 2.012 2.814 3.945 3.839v0l2.81 1.489c1.927 1.021 3.685 1.37 5.274 1.047 1.589-0.323 2.814-1.295 3.673-2.917v0c0.641-1.209 0.864-2.382 0.67-3.52-0.185-1.141-0.692-2.172-1.522-3.095v0l2.092-1.213c0.999 1.296 1.59 2.713 1.772 4.25 0.176 1.534-0.152 3.085-0.983 4.653z" fill="#bfd7b7" data-fill-palette-color="primary"/><path d="M49.918 65.404l-1.69 1.937-16.094-14.038 5.59-6.408c0.819-0.939 1.697-1.59 2.632-1.951 0.941-0.357 1.906-0.423 2.895-0.198 0.991 0.235 1.976 0.78 2.956 1.635v0c1.169 1.02 1.898 2.141 2.188 3.364 0.285 1.219 0.096 2.461-0.566 3.726v0l10.316 2.5-1.91 2.19-9.952-2.547-3.279 3.759zM35.531 52.855l5.811 5.069 3.9-4.471c0.445-0.51 0.734-1.022 0.868-1.536 0.143-0.514 0.125-1.019-0.053-1.515-0.182-0.492-0.519-0.951-1.009-1.379v0l-1.202-1.048c-0.49-0.427-0.991-0.698-1.503-0.812-0.516-0.109-1.019-0.058-1.509 0.153-0.49 0.201-0.958 0.557-1.403 1.068v0z" fill="#bfd7b7" data-fill-palette-color="primary"/><path d="M66.729 49.44v0c-1.102 0.91-2.278 1.438-3.528 1.583-1.256 0.15-2.503-0.063-3.743-0.638-1.239-0.575-2.392-1.508-3.457-2.798v0c-1.065-1.29-1.763-2.598-2.094-3.923-0.331-1.326-0.304-2.591 0.081-3.796 0.379-1.2 1.12-2.256 2.221-3.166v0c1.086-0.897 2.232-1.413 3.439-1.548 1.211-0.139 2.397 0.063 3.557 0.606 1.17 0.545 2.23 1.391 3.179 2.54v0l0.737 0.893-8.758 7.234 0.473 0.571c0.867 1.05 1.908 1.661 3.123 1.835 1.215 0.174 2.389-0.208 3.522-1.143v0c0.773-0.638 1.298-1.375 1.575-2.21 0.277-0.835 0.292-1.721 0.044-2.659v0l2.142-0.135c0.281 1.138 0.222 2.311-0.177 3.52-0.409 1.207-1.187 2.285-2.336 3.234zM57.063 44.852l0.136 0.165 6.729-5.558-0.214-0.258c-0.6-0.726-1.255-1.243-1.966-1.552-0.711-0.318-1.432-0.425-2.163-0.322-0.732 0.103-1.421 0.423-2.069 0.958v0c-0.674 0.556-1.145 1.209-1.414 1.958-0.269 0.749-0.321 1.526-0.157 2.33 0.159 0.809 0.531 1.569 1.118 2.279z" fill="#bfd7b7" data-fill-palette-color="primary"/><path d="M78.701 40.397l-2.067 1.313-7.317-11.517-2.169 1.378-1.15-1.809 2.17-1.378-1.706-2.685c-0.581-0.915-0.81-1.812-0.688-2.692 0.113-0.883 0.662-1.636 1.645-2.261v0l2.007-1.275 1.144 1.801-2.864 1.819 2.528 3.979 2.864-1.819 1.15 1.809-2.864 1.82z" fill="#bfd7b7" data-fill-palette-color="primary"/><path d="M99.828 30.279l-2.394 0.937-6.956-17.778-6.33 2.477-0.826-2.11 15.044-5.887 0.825 2.11-6.32 2.473z" fill="#bfd7b7" data-fill-palette-color="primary"/><path d="M115.905 25.856v0c-1.391 0.326-2.68 0.277-3.865-0.148-1.191-0.423-2.215-1.168-3.07-2.234-0.855-1.066-1.473-2.413-1.855-4.042v0c-0.382-1.629-0.426-3.111-0.134-4.445 0.292-1.335 0.878-2.456 1.758-3.365 0.873-0.907 2.005-1.524 3.396-1.85v0c1.372-0.321 2.628-0.275 3.768 0.139 1.147 0.413 2.12 1.121 2.919 2.123 0.807 1.008 1.38 2.237 1.72 3.688v0l0.264 1.127-11.059 2.592 0.169 0.722c0.311 1.325 0.972 2.336 1.984 3.031 1.012 0.695 2.233 0.875 3.664 0.54v0c0.976-0.229 1.773-0.656 2.392-1.281 0.619-0.625 1.026-1.413 1.22-2.362v0l1.979 0.83c-0.253 1.145-0.827 2.17-1.721 3.075-0.902 0.9-2.079 1.52-3.529 1.86zM109.281 17.453l0.049 0.208 8.497-1.992-0.077-0.326c-0.215-0.917-0.573-1.671-1.073-2.263-0.496-0.6-1.094-1.017-1.795-1.249-0.701-0.232-1.461-0.252-2.279-0.061v0c-0.851 0.199-1.563 0.575-2.136 1.127-0.573 0.552-0.965 1.225-1.175 2.018-0.217 0.795-0.221 1.641-0.011 2.538z" fill="#bfd7b7" data-fill-palette-color="primary"/><path d="M133.107 23.33v0c-2.213 0.195-3.999-0.396-5.357-1.773-1.358-1.376-2.148-3.323-2.37-5.84v0c-0.221-2.517 0.217-4.571 1.315-6.164 1.098-1.592 2.753-2.486 4.966-2.68v0c1.565-0.138 2.854 0.096 3.865 0.701 1.019 0.611 1.799 1.433 2.339 2.466v0l-1.943 1.222c-0.362-0.791-0.893-1.38-1.593-1.768-0.694-0.388-1.519-0.54-2.478-0.455v0c-1.444 0.127-2.498 0.665-3.163 1.614-0.664 0.949-0.936 2.115-0.814 3.499v0l0.236 2.682c0.119 1.356 0.589 2.45 1.41 3.282 0.82 0.825 1.953 1.175 3.397 1.048v0c0.999-0.088 1.832-0.396 2.499-0.924 0.668-0.528 1.178-1.259 1.531-2.194v0l1.866 1.039c-0.408 1.158-1.085 2.122-2.031 2.891-0.945 0.77-2.17 1.221-3.675 1.354z" fill="#bfd7b7" data-fill-palette-color="primary"/><path d="M145.841 22.722l-2.446-0.108 0.996-22.614 2.446 0.108-0.414 9.409 0.122 0.005c0.425-0.876 1.001-1.566 1.728-2.07 0.727-0.497 1.683-0.719 2.867-0.666v0c1.624 0.072 2.887 0.653 3.788 1.743 0.901 1.091 1.31 2.593 1.225 4.508v0l-0.446 10.119-2.436-0.107 0.427-9.693c0.062-1.401-0.193-2.473-0.763-3.217-0.571-0.737-1.448-1.132-2.633-1.184v0c-0.65-0.029-1.274 0.052-1.872 0.243-0.605 0.184-1.1 0.491-1.485 0.921-0.385 0.437-0.593 0.991-0.622 1.661v0z" fill="#bfd7b7" data-fill-palette-color="primary"/><path d="M174.193 27.512v0c-1.399-0.379-2.509-0.971-3.329-1.775-0.816-0.796-1.447-1.743-1.895-2.839v0l2.056-0.906c0.39 0.892 0.896 1.642 1.516 2.252 0.614 0.608 1.405 1.044 2.373 1.306v0c1 0.271 1.84 0.267 2.519-0.013 0.679-0.279 1.126-0.814 1.34-1.605v0c0.159-0.588 0.105-1.151-0.164-1.687-0.262-0.534-0.878-1.006-1.848-1.416v0l-1.156-0.513c-0.891-0.389-1.666-0.844-2.325-1.366-0.663-0.53-1.126-1.154-1.388-1.871-0.256-0.715-0.256-1.543-0.001-2.484v0c0.411-1.517 1.233-2.505 2.466-2.964 1.233-0.459 2.628-0.478 4.183-0.056v0c0.824 0.223 1.529 0.519 2.117 0.889 0.588 0.37 1.087 0.807 1.498 1.311 0.411 0.504 0.756 1.068 1.037 1.691v0l-1.954 0.997c-0.204-0.568-0.579-1.129-1.123-1.683-0.549-0.563-1.314-0.977-2.295-1.243v0c-0.968-0.262-1.764-0.25-2.389 0.038-0.623 0.28-1.034 0.787-1.233 1.518v0c-0.197 0.726-0.093 1.329 0.31 1.811 0.41 0.483 1.067 0.931 1.973 1.344v0l1.129 0.495c1.624 0.713 2.692 1.525 3.203 2.436 0.518 0.912 0.62 1.947 0.307 3.104v0c-0.267 0.987-0.722 1.773-1.364 2.357-0.651 0.589-1.449 0.958-2.395 1.109-0.954 0.156-2.01 0.077-3.168-0.237z" fill="#bfd7b7" data-fill-palette-color="primary"/><path d="M189.98 33.257v0c-1.295-0.554-2.301-1.356-3.015-2.406-0.715-1.05-1.107-2.26-1.177-3.63-0.063-1.368 0.234-2.821 0.891-4.359v0c0.658-1.538 1.503-2.757 2.536-3.656 1.039-0.896 2.185-1.449 3.438-1.657 1.253-0.208 2.527-0.035 3.823 0.518v0c1.295 0.554 2.301 1.356 3.015 2.406 0.715 1.05 1.107 2.26 1.177 3.63 0.07 1.37-0.225 2.825-0.882 4.363v0c-0.658 1.538-1.506 2.756-2.545 3.652-1.039 0.896-2.185 1.449-3.438 1.657-1.253 0.208-2.527 0.035-3.823-0.518zM190.835 31.258v0c1.221 0.522 2.374 0.573 3.459 0.153 1.094-0.423 1.969-1.401 2.625-2.933v0l0.891-2.083c0.658-1.538 0.762-2.849 0.311-3.933-0.446-1.075-1.28-1.873-2.5-2.395v0c-1.202-0.514-2.352-0.564-3.45-0.15-1.101 0.421-1.98 1.4-2.638 2.939v0l-0.891 2.083c-0.655 1.532-0.755 2.841-0.298 3.927 0.459 1.08 1.289 1.877 2.491 2.392z" fill="#bfd7b7" data-fill-palette-color="primary"/><path d="M205.194 40.585l-1.892-1.071c-0.731-0.414-1.172-0.94-1.324-1.579-0.152-0.639-0.048-1.276 0.313-1.913v0l9.905-17.486 2.13 1.207-10.1 17.83 2.025 1.147z" fill="#bfd7b7" data-fill-palette-color="primary"/><path d="M212.853 46.497v0c-1.308-0.942-2.048-2.122-2.22-3.54-0.172-1.418 0.302-2.905 1.422-4.46v0l5.92-8.219 1.987 1.432-5.671 7.872c-0.823 1.143-1.196 2.181-1.117 3.115 0.079 0.933 0.599 1.746 1.561 2.439v0c0.528 0.38 1.089 0.655 1.685 0.825 0.599 0.165 1.178 0.172 1.736 0.024 0.558-0.149 1.041-0.506 1.448-1.073v0l6.384-8.862 1.987 1.432-9.228 12.81-1.987-1.431 1.502-2.086-0.099-0.071c-0.687 0.432-1.476 0.698-2.366 0.8-0.885 0.105-1.867-0.23-2.944-1.007z" fill="#bfd7b7" data-fill-palette-color="primary"/><path d="M227.867 58.925l-2.218-2.105c-0.604-0.574-0.901-1.191-0.889-1.853 0.011-0.671 0.276-1.279 0.793-1.824v0l7.603-8.01-1.886-1.79 1.476-1.555 1.068 1.014c0.383 0.364 0.718 0.537 1.006 0.52 0.287-0.027 0.612-0.232 0.975-0.614v0l2.022-2.13 1.599 1.518-3.008 3.168 2.505 2.379-1.475 1.554-2.506-2.378-7.918 8.341 2.329 2.211z" fill="#bfd7b7" data-fill-palette-color="primary"/><path d="M233.194 64.765l-1.641-1.818 11.719-10.579 1.641 1.817zM246.834 50.794v0c-0.34-0.377-0.497-0.742-0.469-1.095 0.023-0.349 0.187-0.662 0.494-0.939v0l0.294-0.266c0.302-0.272 0.63-0.404 0.984-0.395 0.349 0.013 0.694 0.208 1.035 0.585v0c0.359 0.397 0.522 0.765 0.49 1.104-0.032 0.348-0.199 0.659-0.501 0.931v0l-0.294 0.266c-0.307 0.277-0.632 0.411-0.977 0.403-0.345 0.002-0.697-0.196-1.056-0.594z" fill="#bfd7b7" data-fill-palette-color="primary"/><path d="M240.071 74.713v0c-0.814-1.15-1.251-2.359-1.311-3.628-0.06-1.269 0.239-2.505 0.897-3.709 0.662-1.199 1.675-2.281 3.041-3.248v0c1.365-0.967 2.723-1.563 4.074-1.789 1.354-0.22 2.62-0.091 3.796 0.387 1.177 0.478 2.172 1.292 2.986 2.442v0c0.814 1.15 1.251 2.359 1.311 3.628 0.06 1.269-0.239 2.505-0.896 3.709-0.658 1.204-1.669 2.29-3.035 3.257v0c-1.365 0.967-2.725 1.56-4.08 1.78-1.354 0.22-2.62 0.091-3.797-0.387-1.177-0.478-2.172-1.292-2.986-2.442zM241.846 73.457v0c0.767 1.084 1.723 1.73 2.867 1.941 1.154 0.212 2.411-0.163 3.772-1.127v0l1.849-1.309c1.365-0.967 2.14-2.03 2.323-3.188 0.182-1.15-0.111-2.266-0.877-3.35v0c-0.755-1.067-1.709-1.711-2.862-1.932-1.158-0.217-2.42 0.157-3.785 1.123v0l-1.85 1.309c-1.36 0.963-2.13 2.026-2.309 3.191-0.174 1.161 0.116 2.274 0.872 3.342z" fill="#bfd7b7" data-fill-palette-color="primary"/><path d="M247.836 86.747l-1.121-2.177 14.039-7.225 1.12 2.177-2.285 1.177 0.055 0.108c0.972-0.066 1.857 0.092 2.655 0.474 0.792 0.385 1.459 1.104 2.002 2.157v0c0.744 1.445 0.866 2.83 0.366 4.154-0.5 1.324-1.602 2.424-3.306 3.301v0l-9.006 4.635-1.116-2.168 8.627-4.44c1.247-0.642 2.051-1.395 2.414-2.259 0.357-0.861 0.264-1.819-0.279-2.873v0c-0.298-0.578-0.678-1.08-1.14-1.505-0.459-0.434-0.972-0.711-1.536-0.831-0.571-0.118-1.154-0.023-1.751 0.283v0z" fill="#bfd7b7" data-fill-palette-color="primary"/><path d="M255.405 105.577v0c-0.464-1.373-0.59-2.625-0.379-3.754 0.207-1.121 0.642-2.172 1.305-3.154v0l1.897 1.203c-0.523 0.82-0.866 1.658-1.027 2.514-0.164 0.849-0.085 1.748 0.236 2.698v0c0.332 0.982 0.803 1.677 1.413 2.085 0.61 0.409 1.303 0.482 2.079 0.22v0c0.577-0.195 1.014-0.554 1.31-1.076 0.298-0.515 0.347-1.29 0.148-2.323v0l-0.218-1.246c-0.173-0.957-0.226-1.854-0.159-2.692 0.071-0.846 0.332-1.578 0.781-2.194 0.452-0.61 1.139-1.071 2.064-1.384v0c1.489-0.503 2.767-0.37 3.834 0.399 1.068 0.769 1.86 1.917 2.376 3.444v0c0.273 0.808 0.42 1.56 0.44 2.253 0.02 0.694-0.065 1.352-0.255 1.974-0.19 0.622-0.466 1.223-0.828 1.803v0l-1.916-1.069c0.358-0.486 0.615-1.109 0.773-1.87 0.162-0.77 0.08-1.636-0.246-2.598v0c-0.321-0.95-0.775-1.604-1.36-1.964-0.58-0.362-1.229-0.421-1.948-0.178v0c-0.712 0.241-1.156 0.662-1.331 1.265-0.173 0.609-0.179 1.405-0.019 2.387v0l0.217 1.214c0.311 1.746 0.231 3.086-0.24 4.017-0.469 0.938-1.272 1.599-2.408 1.983v0c-0.969 0.327-1.875 0.387-2.717 0.178-0.851-0.213-1.603-0.67-2.255-1.372-0.661-0.706-1.183-1.627-1.567-2.763z" fill="#bfd7b7" data-fill-palette-color="primary"/><path d="M11.056 143.42c0-1.433 1.161-2.594 2.594-2.594 1.433 0 2.594 1.161 2.594 2.594 0 1.433-1.161 2.594-2.594 2.594-1.433 0-2.594-1.161-2.594-2.594z" fill="#bfd7b7" data-fill-palette-color="primary"/><path d="M267.089 143.42c0-1.433 1.161-2.594 2.594-2.594 1.433 0 2.594 1.161 2.594 2.594 0 1.433-1.161 2.594-2.594 2.594-1.433 0-2.594-1.161-2.594-2.594z" fill="#bfd7b7" data-fill-palette-color="primary"/></g><g id="text-1"><path d="M11.429 182.375l-0.838-2.462 22.623 0.192 1.054 3.097-17.813 13.947-0.867-2.549 5.273-4.058-2.778-8.166zM31.438 182.297l-11.014-0.074 2.375 6.983 8.688-6.765z" fill="#bfd7b7" data-fill-palette-color="primary"/><path d="M22.566 209.962v0c-0.841-1.586-1.197-3.141-1.069-4.665 0.128-1.524 0.748-2.964 1.861-4.321 1.116-1.366 2.727-2.607 4.834-3.723v0c2.107-1.116 4.056-1.763 5.849-1.939 1.783-0.179 3.359 0.098 4.728 0.829 1.369 0.731 2.473 1.89 3.314 3.476v0c0.831 1.568 1.173 3.081 1.025 4.538-0.15 1.467-0.726 2.846-1.729 4.136v0l-2.075-1.246c0.767-0.897 1.238-1.887 1.416-2.969 0.177-1.083-0.045-2.211-0.666-3.384v0c-0.86-1.622-2.12-2.575-3.781-2.86-1.661-0.285-3.458 0.085-5.391 1.109v0l-2.81 1.489c-1.927 1.021-3.203 2.28-3.828 3.777-0.625 1.496-0.508 3.056 0.351 4.677v0c0.641 1.209 1.486 2.052 2.537 2.531 1.048 0.487 2.186 0.647 3.416 0.478v0l-0.171 2.413c-1.634 0.099-3.138-0.207-4.512-0.92-1.368-0.716-2.468-1.858-3.299-3.426z" fill="#bfd7b7" data-fill-palette-color="primary"/><path d="M38.021 231.812l-1.69-1.937 16.094-14.038 5.59 6.409c0.819 0.939 1.344 1.897 1.575 2.872 0.226 0.98 0.16 1.946-0.197 2.896-0.367 0.949-1.041 1.852-2.021 2.706v0c-1.169 1.02-2.379 1.59-3.631 1.711-1.246 0.117-2.451-0.239-3.614-1.067v0l-3.878 9.881-1.91-2.19 3.875-9.514-3.279-3.76zM52.408 219.263l-5.812 5.069 3.9 4.472c0.445 0.51 0.913 0.866 1.404 1.068 0.49 0.211 0.993 0.262 1.509 0.153 0.512-0.114 1.013-0.385 1.502-0.812v0l1.202-1.049c0.49-0.427 0.826-0.887 1.009-1.378 0.178-0.497 0.196-1.002 0.053-1.516-0.133-0.513-0.422-1.025-0.867-1.535v0z" fill="#bfd7b7" data-fill-palette-color="primary"/><path d="M56.21 250.135v0c-1.102-0.91-1.842-1.965-2.221-3.165-0.384-1.205-0.411-2.47-0.08-3.796 0.331-1.326 1.029-2.634 2.094-3.923v0c1.065-1.29 2.218-2.222 3.457-2.798 1.239-0.575 2.487-0.788 3.742-0.638 1.25 0.145 2.426 0.673 3.528 1.583v0c1.086 0.897 1.81 1.925 2.171 3.084 0.366 1.163 0.392 2.366 0.077 3.608-0.314 1.252-0.945 2.452-1.894 3.601v0l-0.738 0.893-8.758-7.233-0.472 0.572c-0.867 1.05-1.271 2.188-1.212 3.413 0.059 1.226 0.655 2.307 1.789 3.243v0c0.773 0.638 1.595 1.015 2.468 1.129 0.872 0.114 1.745-0.039 2.619-0.459v0l0.537 2.078c-1.065 0.491-2.228 0.655-3.489 0.491-1.263-0.173-2.468-0.734-3.618-1.683zM58.889 239.776l-0.136 0.165 6.729 5.557 0.213-0.258c0.6-0.726 0.983-1.467 1.152-2.224 0.178-0.758 0.147-1.486-0.093-2.185-0.24-0.699-0.684-1.316-1.331-1.851v0c-0.674-0.556-1.404-0.896-2.19-1.018-0.786-0.122-1.559-0.027-2.318 0.286-0.764 0.309-1.44 0.818-2.026 1.528z" fill="#bfd7b7" data-fill-palette-color="primary"/><path d="M70.235 259.767l-2.066-1.313 7.317-11.517-2.17-1.378 1.15-1.81 2.17 1.379 1.705-2.684c0.581-0.915 1.296-1.504 2.145-1.767 0.847-0.272 1.762-0.096 2.746 0.529v0l2.007 1.275-1.145 1.801-2.864-1.82-2.528 3.979 2.864 1.82-1.149 1.809-2.864-1.82z" fill="#bfd7b7" data-fill-palette-color="primary"/><path d="M94.075 271.261l-2.393-0.937 6.956-17.777-6.329-2.477 0.825-2.11 15.044 5.887-0.826 2.109-6.32-2.473z" fill="#bfd7b7" data-fill-palette-color="primary"/><path d="M112.135 277.065v0c-1.391-0.326-2.523-0.943-3.396-1.85-0.879-0.909-1.465-2.03-1.757-3.365-0.292-1.335-0.248-2.816 0.134-4.445v0c0.382-1.629 1-2.976 1.855-4.042 0.855-1.066 1.878-1.81 3.07-2.234 1.185-0.425 2.473-0.474 3.864-0.148v0c1.372 0.321 2.476 0.921 3.314 1.8 0.844 0.88 1.401 1.946 1.671 3.198 0.275 1.261 0.242 2.617-0.097 4.068v0l-0.265 1.128-11.059-2.592-0.169 0.722c-0.311 1.325-0.167 2.524 0.43 3.596 0.597 1.072 1.612 1.776 3.043 2.112v0c0.976 0.229 1.88 0.201 2.712-0.085 0.832-0.285 1.546-0.81 2.143-1.574v0l1.404 1.623c-0.736 0.913-1.705 1.576-2.908 1.99-1.208 0.406-2.538 0.438-3.989 0.098zM109.935 266.594l-0.048 0.208 8.497 1.992 0.076-0.327c0.215-0.917 0.23-1.751 0.045-2.504-0.177-0.758-0.528-1.397-1.054-1.917-0.525-0.52-1.197-0.875-2.014-1.067v0c-0.851-0.199-1.655-0.179-2.414 0.061-0.759 0.24-1.409 0.668-1.951 1.285-0.548 0.616-0.927 1.372-1.137 2.269z" fill="#bfd7b7" data-fill-palette-color="primary"/><path d="M131.661 279.964v0c-2.213-0.195-3.868-1.088-4.966-2.68-1.098-1.592-1.536-3.647-1.315-6.164v0c0.221-2.517 1.011-4.463 2.37-5.84 1.358-1.376 3.144-1.967 5.357-1.773v0c1.565 0.138 2.793 0.592 3.685 1.365 0.897 0.779 1.521 1.725 1.872 2.836v0l-2.126 0.864c-0.218-0.842-0.639-1.515-1.261-2.018-0.615-0.503-1.402-0.796-2.36-0.881v0c-1.444-0.127-2.576 0.219-3.396 1.038-0.82 0.819-1.291 1.92-1.412 3.303v0l-0.236 2.682c-0.119 1.356 0.153 2.516 0.816 3.478 0.664 0.956 1.718 1.497 3.162 1.624v0c0.999 0.088 1.873-0.07 2.622-0.473 0.749-0.403 1.379-1.035 1.89-1.894v0l1.656 1.349c-0.604 1.069-1.438 1.9-2.503 2.493-1.065 0.593-2.35 0.824-3.855 0.691z" fill="#bfd7b7" data-fill-palette-color="primary"/><path d="M146.536 279.888l-2.446 0.108-0.996-22.614 2.446-0.108 0.414 9.409 0.122-0.005c0.346-0.91 0.86-1.648 1.54-2.214 0.68-0.559 1.613-0.864 2.797-0.916v0c1.624-0.072 2.933 0.396 3.926 1.403 0.994 1.007 1.532 2.468 1.617 4.383v0l0.446 10.12-2.436 0.107-0.427-9.693c-0.062-1.401-0.409-2.446-1.044-3.137-0.634-0.684-1.542-1-2.726-0.948v0c-0.65 0.029-1.264 0.164-1.843 0.406-0.586 0.236-1.052 0.585-1.398 1.049-0.345 0.469-0.503 1.039-0.474 1.709v0z" fill="#bfd7b7" data-fill-palette-color="primary"/><path d="M178.511 275.27v0c-1.399 0.379-2.656 0.428-3.771 0.148-1.106-0.276-2.129-0.774-3.068-1.496v0l1.318-1.82c0.787 0.573 1.602 0.966 2.445 1.18 0.837 0.215 1.74 0.192 2.708-0.07v0c1-0.271 1.723-0.698 2.168-1.282 0.445-0.584 0.561-1.271 0.347-2.062v0c-0.159-0.588-0.49-1.046-0.993-1.373-0.496-0.329-1.266-0.426-2.31-0.29v0l-1.257 0.14c-0.966 0.114-1.864 0.112-2.696-0.007-0.84-0.123-1.554-0.428-2.142-0.914-0.581-0.488-0.999-1.203-1.255-2.145v0c-0.411-1.517-0.2-2.784 0.634-3.803 0.833-1.018 2.027-1.738 3.583-2.159v0c0.824-0.223 1.583-0.323 2.276-0.301 0.694 0.023 1.345 0.148 1.955 0.376 0.609 0.228 1.192 0.54 1.748 0.937v0l-1.184 1.847c-0.463-0.387-1.069-0.682-1.819-0.886-0.758-0.209-1.628-0.18-2.608 0.085v0c-0.968 0.262-1.649 0.675-2.044 1.237-0.397 0.556-0.496 1.201-0.297 1.934v0c0.197 0.726 0.59 1.195 1.181 1.406 0.597 0.21 1.391 0.265 2.381 0.166v0l1.225-0.143c1.762-0.204 3.094-0.041 3.994 0.487 0.907 0.526 1.518 1.368 1.831 2.525v0c0.267 0.987 0.271 1.895 0.012 2.723-0.265 0.837-0.767 1.559-1.509 2.166-0.745 0.616-1.697 1.08-2.853 1.394z" fill="#bfd7b7" data-fill-palette-color="primary"/><path d="M196.475 268.77v0c-1.295 0.554-2.57 0.727-3.823 0.518-1.253-0.208-2.399-0.761-3.438-1.657-1.033-0.899-1.878-2.118-2.535-3.656v0c-0.658-1.538-0.955-2.991-0.892-4.359 0.07-1.37 0.462-2.581 1.177-3.63 0.715-1.05 1.72-1.852 3.015-2.406v0c1.295-0.554 2.57-0.727 3.823-0.518 1.253 0.208 2.399 0.761 3.438 1.657 1.039 0.896 1.887 2.114 2.545 3.652v0c0.658 1.538 0.952 2.993 0.882 4.363-0.07 1.37-0.462 2.581-1.177 3.63-0.715 1.05-1.72 1.852-3.015 2.406zM195.62 266.771v0c1.221-0.522 2.054-1.32 2.5-2.396 0.45-1.084 0.347-2.392-0.307-3.923v0l-0.891-2.083c-0.658-1.538-1.534-2.519-2.628-2.943-1.086-0.42-2.239-0.369-3.46 0.153v0c-1.202 0.514-2.032 1.311-2.491 2.392-0.456 1.086-0.355 2.399 0.302 3.937v0l0.891 2.083c0.655 1.532 1.533 2.508 2.634 2.929 1.098 0.414 2.248 0.365 3.45-0.149z" fill="#bfd7b7" data-fill-palette-color="primary"/><path d="M212.975 259.99l-1.892 1.071c-0.731 0.414-1.409 0.522-2.035 0.324-0.626-0.198-1.119-0.615-1.48-1.252v0l-9.905-17.486 2.131-1.206 10.1 17.83 2.024-1.147z" fill="#bfd7b7" data-fill-palette-color="primary"/><path d="M222.507 253.744v0c-1.308 0.942-2.662 1.27-4.061 0.985-1.4-0.286-2.659-1.206-3.78-2.762v0l-5.92-8.219 1.986-1.431 5.672 7.873c0.823 1.143 1.69 1.825 2.6 2.046 0.91 0.221 1.846-0.015 2.808-0.708v0c0.528-0.38 0.966-0.826 1.317-1.337 0.346-0.516 0.537-1.063 0.572-1.639 0.035-0.577-0.151-1.148-0.559-1.714v0l-6.383-8.862 1.986-1.431 9.229 12.811-1.987 1.431-1.503-2.086-0.099 0.072c0.192 0.788 0.195 1.621 0.009 2.497-0.181 0.873-0.81 1.698-1.887 2.474z" fill="#bfd7b7" data-fill-palette-color="primary"/><path d="M238.735 239.363l-2.218 2.105c-0.604 0.574-1.236 0.837-1.896 0.792-0.67-0.046-1.263-0.342-1.781-0.887v0l-7.603-8.01-1.887 1.791-1.475-1.555 1.068-1.014c0.383-0.364 0.574-0.689 0.572-0.977-0.012-0.288-0.199-0.623-0.564-1.007v0l-2.021-2.129 1.599-1.518 3.008 3.169 2.505-2.379 1.476 1.555-2.505 2.378 7.918 8.341 2.328-2.21z" fill="#bfd7b7" data-fill-palette-color="primary"/><path d="M244.911 232.653l-1.64 1.817-11.72-10.58 1.641-1.817zM229.623 220.507v0c-0.34 0.377-0.688 0.57-1.042 0.579-0.349 0.013-0.677-0.119-0.984-0.396v0l-0.294-0.266c-0.302-0.272-0.466-0.585-0.494-0.938-0.023-0.349 0.136-0.712 0.476-1.089v0c0.359-0.397 0.708-0.597 1.049-0.6 0.35-0.003 0.676 0.131 0.977 0.403v0l0.294 0.265c0.307 0.277 0.474 0.587 0.501 0.931 0.037 0.343-0.124 0.714-0.483 1.111z" fill="#bfd7b7" data-fill-palette-color="primary"/><path d="M253.553 221.67v0c-0.814 1.15-1.809 1.964-2.987 2.442-1.177 0.478-2.442 0.607-3.796 0.387-1.351-0.226-2.708-0.822-4.074-1.789v0c-1.365-0.967-2.379-2.049-3.041-3.248-0.658-1.204-0.957-2.441-0.897-3.709 0.06-1.269 0.497-2.478 1.311-3.628v0c0.814-1.15 1.809-1.964 2.987-2.442 1.177-0.478 2.442-0.607 3.796-0.387 1.354 0.22 2.714 0.814 4.08 1.78v0c1.365 0.967 2.377 2.052 3.035 3.257 0.658 1.204 0.957 2.441 0.897 3.709-0.06 1.269-0.497 2.478-1.311 3.628zM251.778 220.414v0c0.767-1.084 1.06-2.2 0.878-3.35-0.184-1.159-0.955-2.22-2.316-3.182v0l-1.849-1.31c-1.365-0.967-2.625-1.344-3.779-1.132-1.145 0.21-2.101 0.857-2.868 1.941v0c-0.755 1.067-1.046 2.181-0.872 3.341 0.18 1.165 0.952 2.23 2.318 3.197v0l1.849 1.309c1.36 0.963 2.619 1.335 3.777 1.118 1.153-0.221 2.107-0.866 2.862-1.932z" fill="#bfd7b7" data-fill-palette-color="primary"/><path d="M261.872 207.316l-1.12 2.177-14.038-7.225 1.12-2.177 2.285 1.176 0.056-0.108c-0.618-0.752-1.004-1.564-1.157-2.436-0.147-0.868 0.05-1.829 0.592-2.883v0c0.744-1.445 1.8-2.349 3.167-2.712 1.367-0.363 2.903-0.106 4.608 0.772v0l9.006 4.635-1.116 2.168-8.627-4.44c-1.247-0.642-2.327-0.859-3.241-0.651-0.908 0.211-1.634 0.843-2.176 1.897v0c-0.298 0.578-0.485 1.179-0.562 1.802-0.086 0.626-0.014 1.204 0.216 1.733 0.236 0.533 0.652 0.953 1.249 1.26v0z" fill="#bfd7b7" data-fill-palette-color="primary"/><path d="M271.053 186.551v0c-0.464 1.373-1.123 2.445-1.976 3.214-0.845 0.765-1.828 1.337-2.95 1.716v0l-0.779-2.108c0.914-0.335 1.694-0.793 2.342-1.374 0.645-0.576 1.128-1.338 1.449-2.288v0c0.332-0.982 0.379-1.82 0.142-2.515-0.237-0.695-0.744-1.174-1.52-1.437v0c-0.577-0.195-1.142-0.175-1.693 0.061-0.549 0.229-1.058 0.815-1.527 1.757v0l-0.583 1.122c-0.443 0.866-0.945 1.611-1.507 2.237-0.57 0.629-1.221 1.053-1.952 1.27-0.729 0.211-1.556 0.161-2.48-0.152v0c-1.489-0.503-2.424-1.384-2.807-2.643-0.382-1.259-0.316-2.652 0.201-4.179v0c0.273-0.808 0.612-1.495 1.017-2.058 0.405-0.564 0.872-1.035 1.401-1.414 0.528-0.379 1.112-0.689 1.751-0.931v0l0.876 2.012c-0.579 0.169-1.162 0.508-1.749 1.017-0.595 0.514-1.056 1.252-1.381 2.214v0c-0.321 0.95-0.357 1.745-0.11 2.387 0.241 0.639 0.722 1.08 1.44 1.323v0c0.712 0.241 1.321 0.175 1.826-0.198 0.507-0.379 0.995-1.008 1.463-1.886v0l0.564-1.096c0.812-1.577 1.688-2.593 2.628-3.048 0.942-0.461 1.981-0.499 3.117-0.115v0c0.969 0.327 1.725 0.83 2.268 1.506 0.548 0.686 0.868 1.505 0.96 2.459 0.097 0.962-0.047 2.011-0.431 3.147z" fill="#bfd7b7" data-fill-palette-color="primary"/></g></svg></g></svg></g></svg></g></svg></g><defs/></svg><rect width="280" height="280" fill="none" stroke="none" visibility="hidden"/></g></svg></g></g></g></g><rect width="276.5539536448141" height="158.01400058096868" x="182.72298495596863" y="55" rx="2.5" ry="2.5" fill="transparent" class="logo-element-hover-target"/><rect width="272.9223642367906" height="115.17143927348337" x="185.59098275440306" y="231.8290193860078" rx="2.5" ry="2.5" fill="transparent" class="logo-element-hover-target"/><rect width="176.99159124266146" height="176.99159124266146" x="232.50420437866921" y="112.50420437866927" rx="2.5" ry="2.5" fill="transparent" class="logo-element-hover-target"/></svg>